<?xml version="1.0" encoding="UTF-8"?>
<svg version="1.1" xmlns="http://www.w3.org/2000/svg" width="439" height="438">
<path d="M0 0 C1.30889598 0.00341748 2.61779196 0.00683497 3.96635145 0.01035601 C4.6954613 0.01089126 5.42457114 0.01142651 6.17577523 0.01197797 C8.64884964 0.0150374 11.12184351 0.02531764 13.59489816 0.03549582 C15.3692351 0.03917462 17.14357299 0.0424133 18.91791147 0.04524618 C23.82771179 0.05437708 28.73747579 0.06982099 33.64725651 0.0862125 C39.01032116 0.10301263 44.37339816 0.11401259 49.73647588 0.12572962 C60.16125844 0.14938274 70.58602038 0.1782119 81.01078459 0.20881752 C93.06147272 0.24397547 105.11217045 0.27274948 117.16287607 0.30150229 C149.00017038 0.38063981 180.83744251 0.4685016 212.67471689 0.55528647 C319.31627939 0.83372397 319.31627939 0.83372397 428.11221689 1.11778647 C428.11221689 144.33778647 428.11221689 287.55778647 428.11221689 435.11778647 C285.55221689 435.11778647 142.99221689 435.11778647 -3.88778311 435.11778647 C-3.92811446 326.24555029 -3.92811446 326.24555029 -3.93661124 280.89317709 C-3.93856926 270.51142252 -3.94058978 260.12966796 -3.94271475 249.74791342 C-3.9429785 248.44663939 -3.94324225 247.14536535 -3.94351399 245.80465877 C-3.94786925 224.7669018 -3.95575633 203.72914755 -3.96493591 182.69139219 C-3.97427091 161.1183208 -3.97983839 139.54525083 -3.9818716 117.97217751 C-3.98324715 104.64887552 -3.98759945 91.32558122 -3.99569958 78.0022816 C-4.00096514 68.87938635 -4.00258784 59.75649511 -4.00128449 50.63359845 C-4.00064081 45.36170061 -4.00166195 40.08981623 -4.00698858 34.81792074 C-4.01182131 29.99997681 -4.0121226 25.18205552 -4.00868201 20.36411058 C-4.00825619 18.61309449 -4.00955299 16.86207704 -4.01266629 15.11106367 C-4.01662823 12.74693837 -4.0145478 10.3828969 -4.01083094 8.01877314 C-4.01121066 6.70076387 -4.01159038 5.38275461 -4.01198161 4.02480567 C-3.84673052 0.15689987 -3.84673052 0.15689987 0 0 Z M250.19034189 66.16856772 C248.83990123 66.18782803 247.48945764 66.20688288 246.13901132 66.2257424 C243.321574 66.26653706 240.50424744 66.31173957 237.68692392 66.35972983 C234.07676434 66.42059185 230.4665717 66.46738243 226.85616297 66.5105601 C224.07311402 66.54589126 221.29025919 66.59012538 218.50738138 66.63691145 C216.5293284 66.66814943 214.55114403 66.69067273 212.57297128 66.7130776 C210.77530313 66.74772368 210.77530313 66.74772368 208.94131845 66.78306967 C207.88543527 66.79940954 206.82955209 66.81574942 205.74167246 66.83258444 C202.8815741 66.93806634 202.8815741 66.93806634 200.11221689 69.11778647 C199.5882064 71.93507883 199.22939688 74.5882331 198.98721689 77.43028647 C198.84052558 78.94738341 198.69212995 80.46431667 198.54190439 81.98106772 C198.47326181 82.69472494 198.40461923 83.40838217 198.33389658 84.14366537 C198.06895444 86.50305099 197.63885082 88.80336892 197.11221689 91.11778647 C197.77221689 91.11778647 198.43221689 91.11778647 199.11221689 91.11778647 C198.90000498 91.68304037 198.68779306 92.24829428 198.46915048 92.83067709 C195.96525723 100.17073676 195.75846562 106.91537999 195.73721689 114.61778647 C195.50518137 127.8888581 193.60215726 140.30915525 190.72989267 153.23985678 C189.74157734 157.84470307 188.92258725 162.47880053 188.11221689 167.11778647 C187.45221689 167.11778647 186.79221689 167.11778647 186.11221689 167.11778647 C183.05136294 173.80895558 181.42544888 179.75683465 181.11221689 187.11778647 C180.12221689 187.11778647 179.13221689 187.11778647 178.11221689 187.11778647 C177.97944345 187.74427084 177.84667001 188.37075522 177.70987314 189.01622397 C177.53327158 189.83348959 177.35667001 190.65075522 177.17471689 191.49278647 C177.00069345 192.30489584 176.82667001 193.11700522 176.64737314 193.95372397 C176.11221689 196.11778647 176.11221689 196.11778647 175.11221689 198.11778647 C175.07222489 200.11738659 175.0687489 202.11825889 175.11221689 204.11778647 C174.45221689 204.11778647 173.79221689 204.11778647 173.11221689 204.11778647 C171.34759006 207.20588342 171.11221689 208.35090782 171.11221689 212.11778647 C170.32846689 212.20028647 169.54471689 212.28278647 168.73721689 212.36778647 C166.07785886 212.86281831 166.07785886 212.86281831 164.79971689 214.68028647 C163.80010691 218.22435821 163.98962313 221.43997365 164.11221689 225.11778647 C163.12221689 225.11778647 162.13221689 225.11778647 161.11221689 225.11778647 C160.64815439 226.29341147 160.64815439 226.29341147 160.17471689 227.49278647 C159.11221689 230.11778647 159.11221689 230.11778647 158.11221689 232.11778647 C157.45221689 232.11778647 156.79221689 232.11778647 156.11221689 232.11778647 C156.11221689 232.77778647 156.11221689 233.43778647 156.11221689 234.11778647 C155.45221689 234.11778647 154.79221689 234.11778647 154.11221689 234.11778647 C152.85556711 237.02378908 152.11221689 238.91383231 152.11221689 242.11778647 C151.12221689 242.11778647 150.13221689 242.11778647 149.11221689 242.11778647 C149.11221689 242.77778647 149.11221689 243.43778647 149.11221689 244.11778647 C148.45221689 244.44778647 147.79221689 244.77778647 147.11221689 245.11778647 C146.78221689 246.10778647 146.45221689 247.09778647 146.11221689 248.11778647 C144.12104281 248.81036876 142.12010329 249.47526282 140.11221689 250.11778647 C138.23331255 251.49284746 138.23331255 251.49284746 137.11221689 253.11778647 C137.11221689 253.77778647 137.11221689 254.43778647 137.11221689 255.11778647 C135.72002939 255.51997397 135.72002939 255.51997397 134.29971689 255.93028647 C131.35440664 257.02755891 129.96203812 257.65135816 128.11221689 260.11778647 C128.11221689 260.77778647 128.11221689 261.43778647 128.11221689 262.11778647 C127.32846689 262.24153647 126.54471689 262.36528647 125.73721689 262.49278647 C122.97163867 262.9089664 122.97163867 262.9089664 121.11221689 265.11778647 C121.11221689 266.43778647 121.11221689 267.75778647 121.11221689 269.11778647 C120.25950205 269.26473959 120.25950205 269.26473959 119.38956064 269.41466147 C114.71623857 270.31967876 111.15222106 271.48623013 107.06534189 274.03575522 C100.65648866 277.58625991 93.46248483 279.55036021 86.23721689 280.49278647 C82.58939443 281.22235096 79.51556795 282.63268782 76.11221689 284.11778647 C73.17471689 284.80528647 73.17471689 284.80528647 71.11221689 285.11778647 C71.11221689 285.77778647 71.11221689 286.43778647 71.11221689 287.11778647 C70.08161142 287.15645834 70.08161142 287.15645834 69.03018564 287.19591147 C68.12913095 287.25263022 67.22807626 287.30934897 66.29971689 287.36778647 C65.40639658 287.41419272 64.51307626 287.46059897 63.59268564 287.50841147 C61.04114966 287.90848956 61.04114966 287.90848956 59.48421091 289.74309164 C57.67591393 292.87295476 57.71375433 295.11420257 57.67984384 298.72227865 C57.66965219 299.37635199 57.65946054 300.03042532 57.64896005 300.70431906 C57.61885978 302.85785399 57.6095692 305.01094392 57.60049814 307.16466147 C57.58364915 308.66111609 57.56549861 310.15755657 57.54610056 311.65398031 C57.49861787 315.58630843 57.46879756 319.51857924 57.44266123 323.45109946 C57.41284681 327.46641234 57.36631955 331.48152779 57.32120126 335.49669272 C57.23518793 343.3702936 57.16783413 351.24391249 57.11221689 359.11778647 C68.57757165 365.0997754 87.48012519 359.14173886 99.27627939 355.76622397 C101.10499828 355.26875664 101.10499828 355.26875664 102.11221689 354.11778647 C103.30846689 354.01466147 104.50471689 353.91153647 105.73721689 353.80528647 C110.32475383 353.30844131 113.26372185 351.60327285 117.11221689 349.11778647 C117.11221689 348.12778647 117.11221689 347.13778647 117.11221689 346.11778647 C117.68198251 346.30856772 118.25174814 346.49934897 118.83877939 346.69591147 C124.66171866 347.7764569 131.08178733 343.68433216 136.11221689 341.11778647 C138.71164849 340.07801383 141.32090111 339.07087379 143.94034189 338.08263022 C146.26294526 337.20648133 146.26294526 337.20648133 148.11221689 335.11778647 C151.02828159 334.08096346 153.96983651 333.16208258 156.92471689 332.24278647 C157.64659189 331.87153647 158.36846689 331.50028647 159.11221689 331.11778647 C159.27721689 330.45778647 159.44221689 329.79778647 159.61221689 329.11778647 C159.77721689 328.45778647 159.94221689 327.79778647 160.11221689 327.11778647 C162.67471689 325.86778647 162.67471689 325.86778647 165.11221689 325.11778647 C165.11221689 324.45778647 165.11221689 323.79778647 165.11221689 323.11778647 C166.69002939 323.05591147 166.69002939 323.05591147 168.29971689 322.99278647 C173.35005286 321.83369297 174.10775962 320.20718664 177.11221689 316.11778647 C180.02986689 314.17268646 181.73758974 313.6650233 185.11221689 313.11778647 C185.44221689 311.46778647 185.77221689 309.81778647 186.11221689 308.11778647 C187.76221689 308.11778647 189.41221689 308.11778647 191.11221689 308.11778647 C191.58659189 307.02466147 192.06096689 305.93153647 192.54971689 304.80528647 C192.81655283 304.19040365 193.08338876 303.57552084 193.35831064 302.94200522 C194.01183631 301.36067626 194.57113491 299.7410324 195.11221689 298.11778647 C196.43221689 297.78778647 197.75221689 297.45778647 199.11221689 297.11778647 C199.44221689 319.22778647 199.77221689 341.33778647 200.11221689 364.11778647 C212.50485749 363.96899003 212.50485749 363.96899003 224.89737314 363.81114584 C229.94958923 363.74478486 235.00180361 363.67949772 240.05411142 363.62047201 C244.12604403 363.57283398 248.19789115 363.52049138 252.26972193 363.46484572 C253.82547377 363.44441962 255.38124906 363.42570695 256.93704218 363.40871245 C259.11124286 363.38467403 261.28528145 363.35461887 263.45938486 363.32310873 C264.69848612 363.30756445 265.93758737 363.29202017 267.21423715 363.27600485 C270.05169202 363.3137943 270.05169202 363.3137943 272.11221689 362.11778647 C272.12252435 361.36023566 272.13283182 360.60268484 272.14345163 359.82217795 C272.24139752 352.68570478 272.34390783 345.54931874 272.45155615 338.41298586 C272.5067389 334.74405979 272.56015143 331.07512567 272.60953134 327.40611655 C272.65724351 323.86584755 272.70958874 320.3256747 272.76515764 316.78552061 C272.79547984 314.77642348 272.82099374 312.76725565 272.84645456 310.75809103 C272.86639978 309.53705176 272.886345 308.31601248 272.90689462 307.05797201 C272.92243891 305.9809754 272.93798319 304.90397879 272.95399851 303.79434592 C273.11221689 301.11778647 273.11221689 301.11778647 274.11221689 298.11778647 C274.73096689 298.77778647 275.34971689 299.43778647 275.98721689 300.11778647 C277.86859116 302.34624137 277.86859116 302.34624137 280.11221689 302.11778647 C280.44221689 303.10778647 280.77221689 304.09778647 281.11221689 305.11778647 C284.80644066 308.64409098 286.99196238 310.38632154 292.11221689 311.11778647 C292.44221689 311.77778647 292.77221689 312.43778647 293.11221689 313.11778647 C293.77221689 312.78778647 294.43221689 312.45778647 295.11221689 312.11778647 C295.11221689 313.10778647 295.11221689 314.09778647 295.11221689 315.11778647 C295.77221689 315.11778647 296.43221689 315.11778647 297.11221689 315.11778647 C297.44221689 316.10778647 297.77221689 317.09778647 298.11221689 318.11778647 C298.77221689 318.11778647 299.43221689 318.11778647 300.11221689 318.11778647 C300.11221689 319.10778647 300.11221689 320.09778647 300.11221689 321.11778647 C303.31669105 323.46373419 303.31669105 323.46373419 307.11221689 324.11778647 C307.11221689 324.77778647 307.11221689 325.43778647 307.11221689 326.11778647 C307.85471689 326.20028647 308.59721689 326.28278647 309.36221689 326.36778647 C312.11221689 327.11778647 312.11221689 327.11778647 313.86221689 328.93028647 C316.61413125 331.60575876 319.38016391 332.73224396 322.89346689 334.18809897 C325.02063009 335.07941031 327.05595142 336.07517299 329.11221689 337.11778647 C333.92719876 339.4229774 333.92719876 339.4229774 339.11221689 340.11778647 C339.77221689 341.43778647 340.43221689 342.75778647 341.11221689 344.11778647 C342.43221689 344.11778647 343.75221689 344.11778647 345.11221689 344.11778647 C345.11221689 344.77778647 345.11221689 345.43778647 345.11221689 346.11778647 C348.51542623 346.79452094 348.51542623 346.79452094 352.11221689 347.11778647 C354.96170804 344.26829532 354.84694504 342.09278315 355.11221689 338.11778647 C354.37721286 334.69742594 354.37721286 334.69742594 353.17471689 331.24278647 C349.56666886 319.17164228 349.16264367 305.43149952 355.20206064 294.06700522 C356.16445333 292.41278575 357.13747706 290.76476066 358.11221689 289.11778647 C358.11221689 288.12778647 358.11221689 287.13778647 358.11221689 286.11778647 C358.77221689 286.11778647 359.43221689 286.11778647 360.11221689 286.11778647 C360.45252939 284.97309897 360.45252939 284.97309897 360.79971689 283.80528647 C362.11221689 281.11778647 362.11221689 281.11778647 364.73721689 279.61778647 C365.52096689 279.12278647 366.30471689 278.62778647 367.11221689 278.11778647 C367.53002568 275.49084225 367.53002568 275.49084225 367.11221689 273.11778647 C366.47284189 272.82903647 365.83346689 272.54028647 365.17471689 272.24278647 C363.11221689 271.11778647 363.11221689 271.11778647 362.11221689 269.11778647 C360.89534189 269.09716147 359.67846689 269.07653647 358.42471689 269.05528647 C350.94309852 268.36759413 345.03033676 263.38790318 339.11221689 259.11778647 C338.52794931 258.69722983 337.94368173 258.27667319 337.34170908 257.8433724 C319.9568637 245.18829946 309.16091365 230.41280161 300.11221689 211.11778647 C299.72807626 210.39720053 299.34393564 209.67661459 298.94815439 208.93419272 C297.98605586 206.84365153 297.61219874 204.94930931 297.23721689 202.68028647 C295.72523131 194.59236361 293.23794794 186.72373202 290.11221689 179.11778647 C288.16740212 173.89109677 287.12774113 168.58433183 286.11221689 163.11778647 C285.12221689 163.11778647 284.13221689 163.11778647 283.11221689 163.11778647 C283.00909189 161.90091147 282.90596689 160.68403647 282.79971689 159.43028647 C282.38013152 155.52631823 281.5841215 151.85756693 280.61221689 148.05528647 C279.04422498 141.58541694 278.59941717 135.37042181 278.32315439 128.74669272 C278.13175239 125.4538695 277.65971684 122.36488234 277.11221689 119.11778647 C276.91749529 116.53231636 276.74712766 113.95607463 276.61221689 111.36778647 C276.3716014 106.98514711 276.07515659 102.64165212 275.60440439 98.27794272 C275.23820606 94.75581747 275.0121041 91.26263989 274.90127939 87.72325522 C274.87292001 86.83057944 274.84456064 85.93790365 274.81534189 85.01817709 C274.76270249 83.19027392 274.71860588 81.36210716 274.68252939 79.53380209 C274.56740093 72.7318601 274.56740093 72.7318601 271.11221689 67.11778647 C264.25420083 65.56197078 257.17873331 66.05599001 250.19034189 66.16856772 Z " fill="#EB1B24" transform="translate(6.887783110141754,2.882213532924652)"/>
<path d="M0 0 C1.01037827 0.00222061 2.02075653 0.00444122 3.06175232 0.00672913 C4.77341331 0.00684242 4.77341331 0.00684242 6.51965332 0.00695801 C7.76129745 0.01211929 9.00294159 0.01728058 10.2822113 0.02259827 C12.17785072 0.02472069 12.17785072 0.02472069 14.11178589 0.02688599 C17.47705394 0.0315487 20.84225495 0.04053972 24.20750427 0.05158997 C27.63930175 0.06180606 31.07110614 0.06638403 34.50291443 0.07142639 C41.2405633 0.08248071 47.9781803 0.09923742 54.71580505 0.12025452 C56.56576727 11.25200764 58.19454364 22.04928775 57.90330505 33.37025452 C57.8897699 34.42470764 57.87623474 35.47916077 57.86228943 36.56556702 C57.82794134 39.08442671 57.779381 41.60199501 57.71580505 44.12025452 C58.37580505 44.12025452 59.03580505 44.12025452 59.71580505 44.12025452 C59.71580505 46.76025452 59.71580505 49.40025452 59.71580505 52.12025452 C60.37580505 52.12025452 61.03580505 52.12025452 61.71580505 52.12025452 C61.79621033 52.72498596 61.8766156 53.32971741 61.9594574 53.95277405 C62.33055998 56.71777946 62.71060411 59.48148609 63.09080505 62.24525452 C63.21713318 63.19658264 63.3434613 64.14791077 63.47361755 65.12806702 C64.15273302 70.01769837 65.0262942 74.45953492 66.71580505 79.12025452 C66.84080505 81.99525452 66.84080505 81.99525452 66.71580505 84.12025452 C67.37580505 84.12025452 68.03580505 84.12025452 68.71580505 84.12025452 C69.11799255 85.65166077 69.11799255 85.65166077 69.52830505 87.21400452 C74.5535641 106.00047163 80.39323074 124.51848815 88.71580505 142.12025452 C89.24560974 143.30619202 89.77541443 144.49212952 90.3212738 145.71400452 C98.78602125 163.89008929 112.45130259 178.0525325 129.49705505 188.44837952 C130.45394226 189.03824646 130.45394226 189.03824646 131.43016052 189.64002991 C132.68054914 190.40422729 133.9398364 191.15409643 135.20848083 191.8875885 C138.10764058 193.65476148 139.54627182 194.5976499 140.61424255 197.88978577 C140.64775818 198.62584045 140.6812738 199.36189514 140.71580505 200.12025452 C142.69580505 200.45025452 144.67580505 200.78025452 146.71580505 201.12025452 C146.04482834 205.313859 143.85996565 208.52359803 141.71580505 212.12025452 C141.05580505 212.12025452 140.39580505 212.12025452 139.71580505 212.12025452 C139.56885193 213.09865295 139.56885193 213.09865295 139.41893005 214.09681702 C139.19463318 215.40779358 139.19463318 215.40779358 138.96580505 216.74525452 C138.8265863 217.60377014 138.68736755 218.46228577 138.54393005 219.34681702 C137.71580505 222.12025452 137.71580505 222.12025452 135.6962738 225.00306702 C130.59539041 233.03167639 132.51574668 244.84807776 133.96580505 253.87025452 C134.0870575 254.63241272 134.20830994 255.39457092 134.33323669 256.17982483 C135.08319633 260.27586433 136.06601486 262.93455169 138.71580505 266.12025452 C138.71580505 267.11025452 138.71580505 268.10025452 138.71580505 269.12025452 C137.06580505 269.12025452 135.41580505 269.12025452 133.71580505 269.12025452 C133.71580505 268.13025452 133.71580505 267.14025452 133.71580505 266.12025452 C133.11768005 265.99650452 132.51955505 265.87275452 131.90330505 265.74525452 C128.76166528 264.84764315 126.42174766 262.92421626 123.71580505 261.12025452 C121.38381118 261.04120388 119.04747883 261.03226683 116.71580505 261.12025452 C116.38580505 260.13025452 116.05580505 259.14025452 115.71580505 258.12025452 C114.72580505 257.79025452 113.73580505 257.46025452 112.71580505 257.12025452 C110.52830505 255.68275452 110.52830505 255.68275452 108.71580505 254.12025452 C108.71580505 253.46025452 108.71580505 252.80025452 108.71580505 252.12025452 C107.72580505 252.45025452 106.73580505 252.78025452 105.71580505 253.12025452 C105.71580505 252.46025452 105.71580505 251.80025452 105.71580505 251.12025452 C105.15635193 251.16408264 104.5968988 251.20791077 104.02049255 251.25306702 C94.73802322 251.22321985 88.61162944 245.64083768 81.71580505 240.12025452 C81.17649353 239.69518616 80.63718201 239.2701178 80.08152771 238.83216858 C70.05626194 230.91830824 70.05626194 230.91830824 66.71580505 227.12025452 C66.46580505 223.87025452 66.46580505 223.87025452 66.71580505 221.12025452 C65.39580505 221.12025452 64.07580505 221.12025452 62.71580505 221.12025452 C62.38580505 219.47025452 62.05580505 217.82025452 61.71580505 216.12025452 C60.06580505 216.45025452 58.41580505 216.78025452 56.71580505 217.12025452 C57.04580505 216.13025452 57.37580505 215.14025452 57.71580505 214.12025452 C57.05580505 213.79025452 56.39580505 213.46025452 55.71580505 213.12025452 C55.71580505 213.78025452 55.71580505 214.44025452 55.71580505 215.12025452 C55.05580505 215.45025452 54.39580505 215.78025452 53.71580505 216.12025452 C54.04580505 218.76025452 54.37580505 221.40025452 54.71580505 224.12025452 C55.04580505 222.47025452 55.37580505 220.82025452 55.71580505 219.12025452 C56.04580505 219.12025452 56.37580505 219.12025452 56.71580505 219.12025452 C56.71580505 242.22025452 56.71580505 265.32025452 56.71580505 289.12025452 C34.27580505 289.12025452 11.83580505 289.12025452 -11.28419495 289.12025452 C-11.61419495 266.02025452 -11.94419495 242.92025452 -12.28419495 219.12025452 C-13.93419495 219.12025452 -15.58419495 219.12025452 -17.28419495 219.12025452 C-17.53169495 219.71837952 -17.77919495 220.31650452 -18.03419495 220.93275452 C-19.47611991 223.45612321 -20.80969121 224.62055528 -23.28419495 226.12025452 C-24.27419495 226.12025452 -25.26419495 226.12025452 -26.28419495 226.12025452 C-26.53169495 226.71837952 -26.77919495 227.31650452 -27.03419495 227.93275452 C-28.28419495 230.12025452 -28.28419495 230.12025452 -30.28419495 231.55775452 C-32.47298973 232.96733523 -32.47298973 232.96733523 -33.03419495 235.43275452 C-34.94732086 239.54597524 -38.45507808 241.79885242 -42.28419495 244.12025452 C-42.94419495 244.12025452 -43.60419495 244.12025452 -44.28419495 244.12025452 C-44.28419495 244.78025452 -44.28419495 245.44025452 -44.28419495 246.12025452 C-46.2334137 247.56556702 -46.2334137 247.56556702 -48.97169495 249.24525452 C-49.98876526 249.87044983 -51.00583557 250.49564514 -52.0537262 251.13978577 C-53.11978088 251.79334045 -54.18583557 252.44689514 -55.28419495 253.12025452 C-56.23681213 253.7428717 -57.18942932 254.36548889 -58.1709137 255.00697327 C-77.19545487 267.26723314 -101.11091806 279.54312453 -124.28419495 279.12025452 C-124.28419495 279.78025452 -124.28419495 280.44025452 -124.28419495 281.12025452 C-133.02420787 283.2842481 -141.09286276 283.54579626 -150.28419495 284.12025452 C-150.61419495 263.00025452 -150.94419495 241.88025452 -151.28419495 220.12025452 C-146.33419495 219.13025452 -146.33419495 219.13025452 -141.28419495 218.12025452 C-140.29419495 217.79025452 -139.30419495 217.46025452 -138.28419495 217.12025452 C-134.93136769 216.41124901 -131.57633212 215.71576061 -128.2177887 215.03431702 C-124.99454571 214.36759886 -124.99454571 214.36759886 -123.28419495 211.12025452 C-120.9365387 210.46009827 -120.9365387 210.46009827 -118.22169495 210.05775452 C-115.57023 209.69736192 -115.57023 209.69736192 -113.28419495 209.12025452 C-112.95419495 208.46025452 -112.62419495 207.80025452 -112.28419495 207.12025452 C-108.50025518 205.58102478 -104.86206072 204.27007157 -100.90919495 203.24525452 C-100.04294495 202.87400452 -99.17669495 202.50275452 -98.28419495 202.12025452 C-98.01606995 201.29525452 -97.74794495 200.47025452 -97.47169495 199.62025452 C-96.28419495 197.12025452 -96.28419495 197.12025452 -94.34669495 196.42103577 C-92.75325989 196.0934381 -91.15374371 195.79423052 -89.54981995 195.52259827 C-86.95358119 195.06154207 -84.68285158 194.2035188 -82.28419495 193.12025452 C-82.28419495 193.78025452 -82.28419495 194.44025452 -82.28419495 195.12025452 C-81.62419495 195.45025452 -80.96419495 195.78025452 -80.28419495 196.12025452 C-80.61419495 195.13025452 -80.94419495 194.14025452 -81.28419495 193.12025452 C-79.97169495 190.93275452 -79.97169495 190.93275452 -78.28419495 189.12025452 C-77.62419495 189.12025452 -76.96419495 189.12025452 -76.28419495 189.12025452 C-76.28419495 188.46025452 -76.28419495 187.80025452 -76.28419495 187.12025452 C-73.97419495 187.12025452 -71.66419495 187.12025452 -69.28419495 187.12025452 C-69.24294495 186.37775452 -69.20169495 185.63525452 -69.15919495 184.87025452 C-68.28419495 182.12025452 -68.28419495 182.12025452 -65.34669495 180.18275452 C-61.6925454 177.72179666 -61.327514 176.29353072 -60.28419495 172.12025452 C-59.6460415 170.77304169 -58.99094123 169.43278334 -58.28419495 168.12025452 C-56.96419495 168.12025452 -55.64419495 168.12025452 -54.28419495 168.12025452 C-54.28419495 166.80025452 -54.28419495 165.48025452 -54.28419495 164.12025452 C-53.47981995 163.85212952 -52.67544495 163.58400452 -51.84669495 163.30775452 C-51.00106995 162.91587952 -50.15544495 162.52400452 -49.28419495 162.12025452 C-48.95419495 161.13025452 -48.62419495 160.14025452 -48.28419495 159.12025452 C-46.79919495 160.11025452 -46.79919495 160.11025452 -45.28419495 161.12025452 C-44.95419495 159.80025452 -44.62419495 158.48025452 -44.28419495 157.12025452 C-44.94419495 156.79025452 -45.60419495 156.46025452 -46.28419495 156.12025452 C-45.95419495 155.79025452 -45.62419495 155.46025452 -45.28419495 155.12025452 C-44.91658764 152.79207488 -44.58177914 150.45841602 -44.28419495 148.12025452 C-43.62419495 148.12025452 -42.96419495 148.12025452 -42.28419495 148.12025452 C-41.95419495 147.46025452 -41.62419495 146.80025452 -41.28419495 146.12025452 C-41.28419495 146.78025452 -41.28419495 147.44025452 -41.28419495 148.12025452 C-40.62419495 148.12025452 -39.96419495 148.12025452 -39.28419495 148.12025452 C-39.94419495 147.13025452 -40.60419495 146.14025452 -41.28419495 145.12025452 C-41.18263245 142.51869202 -41.18263245 142.51869202 -40.65919495 139.49525452 C-40.50192932 138.51298889 -40.3446637 137.53072327 -40.18263245 136.51869202 C-39.46513408 133.80467644 -38.69883058 131.75101703 -37.5146637 129.25306702 C-34.31614077 122.3209902 -32.37464565 114.92660461 -30.22169495 107.62025452 C-29.35807098 104.7133289 -28.49139547 101.80731829 -27.6240387 98.90150452 C-27.41878571 98.21266174 -27.21353271 97.52381897 -27.00205994 96.81410217 C-23.08955483 83.73097429 -23.08955483 83.73097429 -21.28419495 80.12025452 C-20.62419495 80.12025452 -19.96419495 80.12025452 -19.28419495 80.12025452 C-19.28419495 76.49025452 -19.28419495 72.86025452 -19.28419495 69.12025452 C-18.29419495 68.79025452 -17.30419495 68.46025452 -16.28419495 68.12025452 C-15.44553421 64.51237694 -15.19750426 61.2679273 -15.29200745 57.56947327 C-15.54469486 43.03615115 -14.77455943 29.13553433 -12.64796448 14.76039124 C-12.06912689 10.55935118 -11.66787319 6.34300235 -11.28419495 2.12025452 C-9.96419495 2.12025452 -8.64419495 2.12025452 -7.28419495 2.12025452 C-4.5206116 1.56753785 -2.65692344 0.13987731 0 0 Z " fill="#FDFCFC" transform="translate(220.28419494628906,75.87974548339844)"/>
<path d="M0 0 C144.87 0 289.74 0 439 0 C439 144.54 439 289.08 439 438 C438.34 438 437.68 438 437 438 C436.67 294.12 436.34 150.24 436 2 C293.44 2 150.88 2 4 2 C3.67 145.88 3.34 289.76 3 438 C2.01 438 1.02 438 0 438 C0 293.46 0 148.92 0 0 Z " fill="#DC565C" transform="translate(0,0)"/>
<path d="M0 0 C0.66 0 1.32 0 2 0 C2 142.89 2 285.78 2 433 C1.34 433 0.68 433 0 433 C0 290.11 0 147.22 0 0 Z " fill="#DB212C" transform="translate(435,5)"/>
<path d="M0 0 C142.56 0 285.12 0 432 0 C431.67 0.99 431.34 1.98 431 3 C376.38195618 2.9183113 321.76393862 2.82617811 267.14593671 2.71994839 C260.70438764 2.70742884 254.2628384 2.69499617 247.82128906 2.68261719 C246.53883995 2.68015119 245.25639083 2.6776852 243.93507962 2.67514448 C223.14332207 2.63537186 202.35155905 2.60264449 181.55978556 2.57250018 C160.24094547 2.54143568 138.92212868 2.5028479 117.60331476 2.45720994 C104.43817432 2.42926597 91.273051 2.40725867 78.1078888 2.39273749 C69.09196066 2.38223197 60.07606559 2.36444876 51.06016232 2.34083296 C45.85091967 2.32740648 40.64172358 2.31729361 35.43246269 2.31578636 C30.67055421 2.31433809 25.90875805 2.30382486 21.14688401 2.28586559 C19.41739109 2.28098536 17.68788468 2.27953406 15.95838626 2.28172119 C13.62077134 2.28419364 11.28352084 2.27456856 8.94594765 2.26171303 C7.64350691 2.25943471 6.34106618 2.25715638 4.99915755 2.25480902 C2 2 2 2 0 0 Z " fill="#DB212C" transform="translate(4,2)"/>
<path d="M0 0 C-3.01843094 1.60871674 -6.04016561 3.21113049 -9.0625 4.8125 C-10.33383789 5.49022461 -10.33383789 5.49022461 -11.63085938 6.18164062 C-20.60911298 10.93075546 -29.37539805 14.08362364 -39.1875 16.6875 C-40.36248047 17.00783203 -41.53746094 17.32816406 -42.74804688 17.65820312 C-51.49108809 20 -51.49108809 20 -56 20 C-56 42.77 -56 65.54 -56 89 C-57.32 88.67 -58.64 88.34 -60 88 C-59.93878154 79.33314772 -59.86167052 70.66662489 -59.76428509 62.000103 C-59.71956362 57.97583774 -59.68031162 53.95167414 -59.65356445 49.92724609 C-59.62754887 46.04318766 -59.58715941 42.15952003 -59.53681374 38.27570343 C-59.52013309 36.79420076 -59.50862625 35.31263049 -59.50238609 33.83104706 C-59.49275755 31.75511236 -59.46471603 29.68018009 -59.43237305 27.60449219 C-59.42126999 26.42312683 -59.41016693 25.24176147 -59.39872742 24.02459717 C-58.96459238 20.73141106 -58.33225984 19.32839071 -56 17 C-53.51953125 16.390625 -53.51953125 16.390625 -50.8125 16.25 C-49.91144531 16.19328125 -49.01039062 16.1365625 -48.08203125 16.078125 C-47.39496094 16.05234375 -46.70789063 16.0265625 -46 16 C-46 15.34 -46 14.68 -46 14 C-45.40832031 13.89042969 -44.81664063 13.78085937 -44.20703125 13.66796875 C-39.08353255 12.6609776 -39.08353255 12.6609776 -34.4375 10.375 C-31.49891099 8.7173344 -29.40803821 9.01202662 -26.109375 9.1484375 C-22.9507691 8.92616523 -20.6744771 7.59709197 -17.94140625 6.078125 C-15.06547686 4.4810294 -12.02439258 3.28816721 -9 2 C-7.9275 1.4225 -6.855 0.845 -5.75 0.25 C-3 -1 -3 -1 0 0 Z " fill="#C62F36" transform="translate(124,274)"/>
<path d="M0 0 C0.65392731 0.00946152 1.30785461 0.01892303 1.9815979 0.02867126 C4.14076879 0.06232105 6.29936204 0.11044266 8.45825195 0.15869141 C9.9561055 0.18486148 11.45397508 0.21012826 12.95185852 0.23452759 C16.89267274 0.3011499 20.83314947 0.38004862 24.77368164 0.46148682 C28.79535985 0.54243505 32.81723592 0.6117976 36.83911133 0.68212891 C44.72932549 0.82181793 52.61922078 0.97447392 60.5090332 1.13525391 C60.5090332 1.79525391 60.5090332 2.45525391 60.5090332 3.13525391 C38.0690332 3.13525391 15.6290332 3.13525391 -7.4909668 3.13525391 C-7.4909668 8.08525391 -7.4909668 13.03525391 -7.4909668 18.13525391 C-7.76172577 20.80899881 -8.05793783 23.48295148 -8.4909668 26.13525391 C-8.8209668 26.13525391 -9.1509668 26.13525391 -9.4909668 26.13525391 C-9.57774982 22.1770578 -9.63128413 18.21910456 -9.6784668 14.26025391 C-9.70360352 13.13232422 -9.72874023 12.00439453 -9.75463867 10.84228516 C-9.76430664 9.76591797 -9.77397461 8.68955078 -9.78393555 7.58056641 C-9.799646 6.58557129 -9.81535645 5.59057617 -9.83154297 4.56542969 C-9.71915283 3.76347168 -9.6067627 2.96151367 -9.4909668 2.13525391 C-5.86533033 -0.28183707 -4.30595301 -0.08078711 0 0 Z " fill="#C0353F" transform="translate(216.490966796875,69.86474609375)"/>
<path d="M0 0 C0.33 0 0.66 0 1 0 C2.69214979 6.98144819 4.29843593 13.84404654 5 21 C0.23750712 22.75401836 -2.95202388 20.66854893 -7.375 18.72265625 C-17.64081763 13.92562569 -27.81759078 8.67098106 -37 2 C-33.84508031 0.9483601 -32.96644412 1.01967577 -29.875 1.8125 C-29.17117188 1.98394531 -28.46734375 2.15539062 -27.7421875 2.33203125 C-26 3 -26 3 -25 5 C-24.38125 5.28875 -23.7625 5.5775 -23.125 5.875 C-21 7 -21 7 -19.6875 9.125 C-19.130625 9.74375 -18.57375 10.3625 -18 11 C-14.58343976 11.16677282 -14.58343976 11.16677282 -11 11 C-7.13834634 12.11558883 -6.28502851 12.57245724 -4 16 C-3.01 16.33 -2.02 16.66 -1 17 C-1 17.99 -1 18.98 -1 20 C0.65 20 2.3 20 4 20 C2.3672149 16.25332798 2.3672149 16.25332798 0 13 C-0.07258946 10.81360547 -0.08373783 8.62499611 -0.0625 6.4375 C-0.05347656 5.23996094 -0.04445313 4.04242188 -0.03515625 2.80859375 C-0.02355469 1.88175781 -0.01195312 0.95492188 0 0 Z " fill="#F9D4D2" transform="translate(355,325)"/>
<path d="M0 0 C1.5960938 4.44988696 1.67823512 8.69700873 1.79296875 13.39453125 C1.82712891 14.30654297 1.86128906 15.21855469 1.89648438 16.15820312 C2.08298732 21.46782787 2.13660878 26.76954194 2.10546875 32.08203125 C1.11546875 32.08203125 0.12546875 32.08203125 -0.89453125 32.08203125 C-1.23787909 28.83301098 -1.5672524 25.5827063 -1.89453125 22.33203125 C-1.98992187 21.43097656 -2.0853125 20.52992187 -2.18359375 19.6015625 C-2.8730929 12.65732105 -2.89453125 6.14211849 -2.89453125 -0.91796875 C-21.04453125 -0.91796875 -39.19453125 -0.91796875 -57.89453125 -0.91796875 C-57.89453125 -1.24796875 -57.89453125 -1.57796875 -57.89453125 -1.91796875 C-51.04452858 -2.08681923 -44.19435659 -2.24658977 -37.34399414 -2.40014648 C-35.0151697 -2.45340914 -32.68639125 -2.50872535 -30.35766602 -2.56616211 C-27.00416988 -2.64851361 -23.65057594 -2.72339992 -20.296875 -2.796875 C-19.26118881 -2.82391006 -18.22550262 -2.85094513 -17.15843201 -2.87879944 C-3.12768351 -3.1663765 -3.12768351 -3.1663765 0 0 Z " fill="#D02932" transform="translate(279.89453125,71.91796875)"/>
<path d="M0 0 C0.495 0.99 0.495 0.99 1 2 C0.1875 3.8125 0.1875 3.8125 -1 6 C-1.268125 6.845625 -1.53625 7.69125 -1.8125 8.5625 C-3 11 -3 11 -5.5 12.4375 C-8.76590347 14.47868967 -9.10749117 16.34882752 -10 20 C-12.31 19.67 -14.62 19.34 -17 19 C-17 19.66 -17 20.32 -17 21 C-17.66 21.639375 -18.32 22.27875 -19 22.9375 C-21.34807292 24.88012332 -21.34807292 24.88012332 -21 28 C-21.99 27.67 -22.98 27.34 -24 27 C-23.67 26.34 -23.34 25.68 -23 25 C-23.721875 25.495 -24.44375 25.99 -25.1875 26.5 C-28.14848659 28.07919285 -29.71253029 28.28178312 -33 28 C-29.66463728 24.39713952 -25.94934979 21.71621631 -21.9375 18.9375 C-17.45121055 15.92448241 -17.45121055 15.92448241 -13.42407227 12.35375977 C-12 11 -12 11 -10 11 C-10 10.34 -10 9.68 -10 9 C-8.3203125 7.59765625 -8.3203125 7.59765625 -6.125 6.0625 C-3.32503965 4.10052062 -1.93937238 2.90905857 0 0 Z " fill="#F8E4E2" transform="translate(161,244)"/>
<path d="M0 0 C0 3.86695678 -1.41909971 6.5088452 -3 10 C-4.65 10 -6.3 10 -8 10 C-8.33 11.65 -8.66 13.3 -9 15 C-10.3303125 15.3403125 -10.3303125 15.3403125 -11.6875 15.6875 C-15.46401385 17.18385454 -17.30538208 19.00598009 -20 22 C-22.76223278 24.76223278 -25.20706617 24.57856291 -29 25 C-29.33 25.99 -29.66 26.98 -30 28 C-31.9375 28.5625 -31.9375 28.5625 -34 29 C-34.66 29.66 -35.32 30.32 -36 31 C-36.99 30.34 -37.98 29.68 -39 29 C-37.04532248 27.66101601 -35.0866421 26.32870953 -33.125 25 C-32.03445312 24.2575 -30.94390625 23.515 -29.8203125 22.75 C-27 21 -27 21 -25 21 C-25 20.34 -25 19.68 -25 19 C-23.41796875 17.80859375 -23.41796875 17.80859375 -21.1875 16.4375 C-16.35789322 13.33220781 -11.98564005 9.82136671 -7.578125 6.1484375 C-5.07794985 4.06495821 -2.5475111 2.02517969 0 0 Z " fill="#C93640" transform="translate(201,301)"/>
<path d="M0 0 C0.66 0 1.32 0 2 0 C2.66 1.65 3.32 3.3 4 5 C3.34 5 2.68 5 2 5 C2 26.78 2 48.56 2 71 C1.34 71 0.68 71 0 71 C0 47.57 0 24.14 0 0 Z " fill="#BC4E51" transform="translate(277,294)"/>
<path d="M0 0 C0.33 0 0.66 0 1 0 C0.88416889 1.54238266 0.75683428 3.08390272 0.625 4.625 C0.55539062 5.48351562 0.48578125 6.34203125 0.4140625 7.2265625 C0 10 0 10 -1.0234375 12.8046875 C-2.2440159 16.79842002 -2.29373295 20.35265875 -2.25 24.5 C-2.25773437 25.23347656 -2.26546875 25.96695312 -2.2734375 26.72265625 C-2.25730163 31.23263276 -1.59180702 34.73372309 0 39 C0.46566226 41.01010874 0.88320405 43.03202242 1.25 45.0625 C1.44078125 46.06410156 1.6315625 47.06570313 1.828125 48.09765625 C2.02080238 51.35127663 1.5617544 53.15628433 0 56 C-3.28928478 57.1807689 -4.65284689 57.1157177 -8 56 C-8 55.34 -8 54.68 -8 54 C-9.65 53.67 -11.3 53.34 -13 53 C-13.495 51.515 -13.495 51.515 -14 50 C-13.31292969 50.2165625 -12.62585938 50.433125 -11.91796875 50.65625 C-11.01691406 50.9346875 -10.11585938 51.213125 -9.1875 51.5 C-8.29417969 51.7784375 -7.40085937 52.056875 -6.48046875 52.34375 C-3.94426605 53.12788351 -3.94426605 53.12788351 -1 53 C-1.4787653 48.11659395 -2.33910702 43.56757461 -3.5625 38.8125 C-6.62266957 25.72763702 -5.31350906 12.38278632 0 0 Z " fill="#C13E43" transform="translate(360,293)"/>
<path d="M0 0 C0 0.99 0 1.98 0 3 C-4.52468664 5.92219345 -7.69701904 7.29623282 -13.03515625 7.7265625 C-16.24920488 8.17384561 -19.04321175 9.70316305 -22 11 C-32.83151841 14.23395028 -44.73680822 15.4770293 -56 15 C-56 14.67 -56 14.34 -56 14 C-55.34217529 13.87471924 -54.68435059 13.74943848 -54.0065918 13.62036133 C-28.32879636 9.05449104 -28.32879636 9.05449104 -3.71484375 0.69921875 C-2 0 -2 0 0 0 Z " fill="#C6363C" transform="translate(124,349)"/>
<path d="M0 0 C0.33 0 0.66 0 1 0 C1 18.48 1 36.96 1 56 C10.29760124 55.48291013 10.29760124 55.48291013 19 53 C21.6723621 52.86584528 24.32250488 52.95681459 27 53 C27 52.34 27 51.68 27 51 C32.45461169 49.61470179 37.36718401 48.7603057 43 49 C29.88474614 56.32410281 14.54551402 56.30735648 0 57 C0 38.19 0 19.38 0 0 Z " fill="#FDE5E2" transform="translate(69,304)"/>
<path d="M0 0 C1.2065625 0.0309375 1.2065625 0.0309375 2.4375 0.0625 C2.9325 1.5475 2.9325 1.5475 3.4375 3.0625 C2.756875 3.330625 2.07625 3.59875 1.375 3.875 C-5.04006234 6.41051678 -5.04006234 6.41051678 -11.125 9.625 C-13.5625 11.0625 -13.5625 11.0625 -16.4375 12 C-19.69615127 12.97892112 -19.69615127 12.97892112 -22.8125 15.0625 C-27.09322276 17.64055326 -31.67914534 18.31574959 -36.5625 19.0625 C-36.8925 18.4025 -37.2225 17.7425 -37.5625 17.0625 C-36.70011719 16.74539063 -35.83773437 16.42828125 -34.94921875 16.1015625 C-24.8842137 12.25411601 -10.00695863 0.24407216 0 0 Z " fill="#C7343B" transform="translate(162.5625,330.9375)"/>
<path d="M0 0 C4.09831052 2.22734268 7.94417031 4.61315754 11.75 7.3125 C22.06921043 14.59482568 32.64829159 20.51642693 44 26 C40.29450851 27.23516383 39.10336164 26.58673093 35.5 25.25 C34.5409375 24.90453125 33.581875 24.5590625 32.59375 24.203125 C30.06992048 23.03243299 28.89697323 21.95477573 27 20 C24.97539239 19.13402922 22.94022573 18.50085274 20.83984375 17.84375 C19 17 19 17 17 14 C14.43717258 13.27034634 14.43717258 13.27034634 12 13 C12 12.34 12 11.68 12 11 C11.21625 10.690625 10.4325 10.38125 9.625 10.0625 C7 9 7 9 5 8 C5 7.01 5 6.02 5 5 C4.01 4.67 3.02 4.34 2 4 C2 3.34 2 2.68 2 2 C1.34 2 0.68 2 0 2 C0 1.34 0 0.68 0 0 Z " fill="#C3353E" transform="translate(302,316)"/>
<path d="M0 0 C0.33 0 0.66 0 1 0 C1.13051758 1.04639648 1.26103516 2.09279297 1.39550781 3.17089844 C4.51242596 28.90054024 4.51242596 28.90054024 9.203125 54.375 C9.9066152 57.5751907 10.49429972 60.76351823 11 64 C10.34 64 9.68 64 9 64 C5.89679468 53.30428568 3.56312772 43.18878449 4 32 C3.34 32 2.68 32 2 32 C2 29.36 2 26.72 2 24 C1.34 24 0.68 24 0 24 C0 16.08 0 8.16 0 0 Z " fill="#F7C7C5" transform="translate(278,96)"/>
<path d="M0 0 C21.45 0 42.9 0 65 0 C65.62218108 5.59962976 66.12073691 10.52999319 66.0625 16.0625 C66.05347656 17.18785156 66.04445313 18.31320313 66.03515625 19.47265625 C66.02355469 20.30667969 66.01195312 21.14070313 66 22 C62.5276865 15.49294096 63 9.38322459 63 2 C42.21 2 21.42 2 0 2 C0 1.34 0 0.68 0 0 Z " fill="#FCE0E0" transform="translate(212,74)"/>
<path d="M0 0 C-1.56126332 3.83219177 -4.02866925 6.17361222 -7 9 C-7.556875 9.598125 -8.11375 10.19625 -8.6875 10.8125 C-10 12 -10 12 -12 12 C-12 12.66 -12 13.32 -12 14 C-13.94410951 15.67067216 -15.88731954 17.21922121 -17.9375 18.75 C-18.52490967 19.19520996 -19.11231934 19.64041992 -19.7175293 20.09912109 C-24.3557863 23.58682723 -29.10167391 26.88633536 -34 30 C-34.33 29.01 -34.66 28.02 -35 27 C-33.75 25.5 -33.75 25.5 -32 24 C-30.68 24 -29.36 24 -28 24 C-28 23.34 -28 22.68 -28 22 C-25.88414923 19.41396017 -24.70537877 18.13435786 -21.375 17.5 C-20.199375 17.2525 -20.199375 17.2525 -19 17 C-18.29848848 15.6846659 -17.63474075 14.34882408 -17 13 C-12.71428571 10 -12.71428571 10 -10 10 C-9.67 8.68 -9.34 7.36 -9 6 C-8.34 6 -7.68 6 -7 6 C-7 5.34 -7 4.68 -7 4 C-6.01 4 -5.02 4 -4 4 C-4 3.01 -4 2.02 -4 1 C-2 0 -2 0 0 0 Z " fill="#C43A44" transform="translate(163,241)"/>
<path d="M0 0 C0.85696068 3.31262111 1.46228519 6.62007831 2 10 C0.35 10 -1.3 10 -3 10 C-3 11.0725 -3 12.145 -3 13.25 C-3 21 -3 21 -4 23 C-4.99 22.67 -5.98 22.34 -7 22 C-7.928125 22.99 -7.928125 22.99 -8.875 24 C-11 26 -11 26 -13 26 C-13 27.32 -13 28.64 -13 30 C-14.32 29.67 -15.64 29.34 -17 29 C-9 17 -9 17 -6.90625 13.96875 C-5.05676991 11.08841215 -3.62439776 8.25557267 -2.25 5.125 C-1.82203125 4.15820312 -1.3940625 3.19140625 -0.953125 2.1953125 C-0.63859375 1.47085938 -0.3240625 0.74640625 0 0 Z " fill="#F8D9D9" transform="translate(179,214)"/>
<path d="M0 0 C0.33 0 0.66 0 1 0 C1.3620575 16.31486788 0.89502893 31.92225003 -2 48 C-2.33 48 -2.66 48 -3 48 C-3.08829061 44.20848417 -3.14081946 40.41723835 -3.1875 36.625 C-3.21263672 35.56410156 -3.23777344 34.50320312 -3.26367188 33.41015625 C-3.32804088 26.4153909 -2.44491029 20.56202529 0 14 C-0.66 14 -1.32 14 -2 14 C-1.7834375 13.0409375 -1.7834375 13.0409375 -1.5625 12.0625 C-0.82763202 8.06155212 -0.41418889 4.04495104 0 0 Z " fill="#CA323A" transform="translate(206,80)"/>
<path d="M0 0 C1.10797564 3.32392691 0.90393174 4.14339808 -0.0390625 7.39453125 C-0.28712646 8.26070068 -0.53519043 9.12687012 -0.79077148 10.01928711 C-1.2037146 11.40192749 -1.2037146 11.40192749 -1.625 12.8125 C-1.90351807 13.75939697 -2.18203613 14.70629395 -2.46899414 15.68188477 C-6.25806343 28.40982605 -10.80206534 40.24714408 -17 52 C-17.85010911 49.59494448 -18.14566919 48.39944025 -17.2578125 45.96484375 C-16.88398438 45.29582031 -16.51015625 44.62679687 -16.125 43.9375 C-14.8322555 41.58253537 -13.85673059 39.57019176 -13 37 C-12.34 37 -11.68 37 -11 37 C-11.04125 36.113125 -11.0825 35.22625 -11.125 34.3125 C-10.99829921 30.95492908 -10.29654407 29.05069193 -9 26 C-8.62406934 24.0075675 -8.28020455 22.0081326 -8 20 C-7.01 20 -6.02 20 -5 20 C-4.97421875 19.39414063 -4.9484375 18.78828125 -4.921875 18.1640625 C-4.46968294 11.48395253 -2.77755061 6.07185483 0 0 Z " fill="#BD3942" transform="translate(193,170)"/>
<path d="M0 0 C-1.59801869 8.85758932 -4.40635438 14.98251731 -10 22 C-10.52207031 22.73734375 -11.04414063 23.4746875 -11.58203125 24.234375 C-13.27432933 26.34158914 -14.36997706 26.63723822 -17 27 C-16.67 25.35 -16.34 23.7 -16 22 C-15.34 22 -14.68 22 -14 22 C-14 21.34 -14 20.68 -14 20 C-13.34 20 -12.68 20 -12 20 C-10.79371992 17.66785852 -9.8345262 15.50357861 -9 13 C-8.01 13 -7.02 13 -6 13 C-6.04125 11.7625 -6.0825 10.525 -6.125 9.25 C-6.125 5.99716438 -5.95704844 3.71812283 -4 1 C-2 0 -2 0 0 0 Z " fill="#CC2C34" transform="translate(177,215)"/>
<path d="M0 0 C0.99 0.495 0.99 0.495 2 1 C1.67 22.78 1.34 44.56 1 67 C5.95 66.67 10.9 66.34 16 66 C16 66.33 16 66.66 16 67 C14.45998293 67.34087334 12.91787594 67.67230953 11.375 68 C10.08722656 68.2784375 10.08722656 68.2784375 8.7734375 68.5625 C6 69 6 69 0 69 C0 46.23 0 23.46 0 0 Z " fill="#FCCACB" transform="translate(68,294)"/>
<path d="M0 0 C2.31 0 4.62 0 7 0 C7.33 0.66 7.66 1.32 8 2 C10.01669827 3.13350534 10.01669827 3.13350534 12 4 C12.375 6.25 12.375 6.25 12 9 C10.03277992 10.38123963 8.03131672 11.71488126 6 13 C5.04768403 15.12119128 5.04768403 15.12119128 5 17 C4.34 17 3.68 17 3 17 C2.8453125 18.1446875 2.8453125 18.1446875 2.6875 19.3125 C1.95635961 22.17059424 1.23048087 23.15742885 -1 25 C-1.40013459 19.97608794 -0.46785718 17.49424203 2.375 13.375 C4.46131859 10.30991467 6.43539277 7.36627617 8 4 C7.05125 3.71125 6.1025 3.4225 5.125 3.125 C2 2 2 2 0 0 Z " fill="#C8343B" transform="translate(362,272)"/>
<path d="M0 0 C0.33 0 0.66 0 1 0 C3.33707865 16.06741573 3.33707865 16.06741573 0 22 C-0.66 22.33 -1.32 22.66 -2 23 C-2.4683265 25.58605332 -2.4683265 25.58605332 -2.625 28.5625 C-2.69976562 29.57441406 -2.77453125 30.58632812 -2.8515625 31.62890625 C-2.90054688 32.41136719 -2.94953125 33.19382813 -3 34 C-3.66 34 -4.32 34 -5 34 C-5.33 34.66 -5.66 35.32 -6 36 C-5.16916588 28.43654458 -3.79516084 20.98424797 -2.4375 13.5 C-2.20097747 12.18753502 -1.96464778 10.87503527 -1.72851562 9.5625 C-1.15423451 6.37465378 -0.5780093 3.18717197 0 0 Z " fill="#FADAD5" transform="translate(204,122)"/>
<path d="M0 0 C1.09806742 3.29420226 0.88939124 4.16527724 0.125 7.4375 C-1.62312635 16.17813174 -1.66936425 25.11633954 -2 34 C-2.33 34 -2.66 34 -3 34 C-4.88032685 23.92682045 -5.3174191 15.16294738 -4 5 C-3.34 5 -2.68 5 -2 5 C-1.34 3.35 -0.68 1.7 0 0 Z " fill="#FEE5E3" transform="translate(357,298)"/>
<path d="M0 0 C20.46 0 40.92 0 62 0 C62 0.33 62 0.66 62 1 C60.99521858 1.00879936 60.99521858 1.00879936 59.97013855 1.01777649 C53.01097968 1.0816098 46.05228759 1.16600328 39.09350586 1.26245117 C36.49493557 1.29574743 33.89629213 1.32376454 31.29760742 1.34643555 C27.56657681 1.37989451 23.83621939 1.43220729 20.10546875 1.48828125 C18.35691841 1.49786613 18.35691841 1.49786613 16.57304382 1.50764465 C14.9517028 1.53733589 14.9517028 1.53733589 13.29760742 1.56762695 C12.34496506 1.57873001 11.39232269 1.58983307 10.41081238 1.60127258 C7.62075182 2.06272435 6.73042913 2.81941759 5 5 C5 4.34 5 3.68 5 3 C3.02 3.99 3.02 3.99 1 5 C0.67 3.35 0.34 1.7 0 0 Z " fill="#FBF4F4" transform="translate(210,75)"/>
<path d="M0 0 C0 23.43 0 46.86 0 71 C-0.33 71 -0.66 71 -1 71 C-1 48.89 -1 26.78 -1 4 C-1.99 3.67 -2.98 3.34 -4 3 C-1.125 0 -1.125 0 0 0 Z " fill="#A1424C" transform="translate(209,294)"/>
<path d="M0 0 C0.99 0.33 1.98 0.66 3 1 C2.01 2.485 2.01 2.485 1 4 C1.66 4 2.32 4 3 4 C3.33 3.34 3.66 2.68 4 2 C4.66 2.33 5.32 2.66 6 3 C6.625 5.5625 6.625 5.5625 7 8 C8.32 7.67 9.64 7.34 11 7 C12 10 12 10 11 13 C7.63820226 11.55922954 5.40843732 9.75249979 3 7 C3 6.34 3 5.68 3 5 C2.01 5.495 2.01 5.495 1 6 C0.53348793 8.12576782 0.53348793 8.12576782 0.375 10.5625 C0.30023438 11.38878906 0.22546875 12.21507812 0.1484375 13.06640625 C0.09945313 13.70449219 0.05046875 14.34257812 0 15 C-1.79275866 11.88089144 -2.34290718 9.32317572 -2.625 5.75 C-2.69976562 4.85796875 -2.77453125 3.9659375 -2.8515625 3.046875 C-2.92503906 2.03367187 -2.92503906 2.03367187 -3 1 C-2.01 1.33 -1.02 1.66 0 2 C0 1.34 0 0.68 0 0 Z " fill="#F7EAE8" transform="translate(276,289)"/>
<path d="M0 0 C1.32 0.66 2.64 1.32 4 2 C-1.55842319 7.83789698 -7.37676406 13.37112135 -14 18 C-14.66 18 -15.32 18 -16 18 C-15.45156876 14.16098132 -13.7234735 12.63836495 -11 10 C-10.67 9.01 -10.34 8.02 -10 7 C-9.34 7 -8.68 7 -8 7 C-7.67 7.33 -7.34 7.66 -7 8 C-6.67 7.34 -6.34 6.68 -6 6 C-5.01 6 -4.02 6 -3 6 C-2.690625 5.195625 -2.38125 4.39125 -2.0625 3.5625 C-1 1 -1 1 0 0 Z " fill="#F9DDDA" transform="translate(203,294)"/>
<path d="M0 0 C1.32 0 2.64 0 4 0 C4 22.11 4 44.22 4 67 C3.67 67 3.34 67 3 67 C2.67 45.55 2.34 24.1 2 2 C0.68 2.33 -0.64 2.66 -2 3 C-1.34 2.01 -0.68 1.02 0 0 Z " fill="#C5494D" transform="translate(204,298)"/>
<path d="M0 0 C22.44 0 44.88 0 68 0 C68 0.33 68 0.66 68 1 C46.55 1 25.1 1 3 1 C2.34 2.32 1.68 3.64 1 5 C0.67 5 0.34 5 0 5 C0 3.35 0 1.7 0 0 Z " fill="#FEFDFD" transform="translate(209,73)"/>
<path d="M0 0 C-0.33 0.99 -0.66 1.98 -1 3 C-4.125 3.9140625 -4.125 3.9140625 -8 4.625 C-12.32655949 5.08625139 -12.32655949 5.08625139 -16 7 C-18.01594582 7.23427778 -20.038474 7.41336124 -22.0625 7.5625 C-23.71958984 7.68818359 -23.71958984 7.68818359 -25.41015625 7.81640625 C-26.26480469 7.87699219 -27.11945313 7.93757813 -28 8 C-25.78891681 5.48037337 -24.10618449 4.49025371 -20.875 3.6484375 C-20.08609375 3.43703125 -19.2971875 3.225625 -18.484375 3.0078125 C-17.66453125 2.79898437 -16.8446875 2.59015625 -16 2.375 C-14.37489075 1.94572586 -12.74988637 1.51605448 -11.125 1.0859375 C-10.04605469 0.8082251 -10.04605469 0.8082251 -8.9453125 0.52490234 C-3.25558324 -1.01035342 -3.25558324 -1.01035342 0 0 Z " fill="#F9D9D4" transform="translate(97,288)"/>
<path d="M0 0 C23.1 0 46.2 0 70 0 C70 0.33 70 0.66 70 1 C35.35 1.495 35.35 1.495 0 2 C0 1.34 0 0.68 0 0 Z " fill="#C5494D" transform="translate(207,365)"/>
<path d="M0 0 C0.66 0 1.32 0 2 0 C2.19335938 1.05960938 2.38671875 2.11921875 2.5859375 3.2109375 C2.84855064 4.59903553 3.11159386 5.98705224 3.375 7.375 C3.50132812 8.07367188 3.62765625 8.77234375 3.7578125 9.4921875 C4.50143321 13.67259465 4.50143321 13.67259465 7 17 C7.54312436 18.68908833 8.0128261 20.40231153 8.4375 22.125 C9.34636571 25.6812284 10.35079026 29.04489555 11.75 32.4375 C12.996177 35.98910445 13.08407798 36.66719268 12 40 C9.32069963 33.72728501 7.0403661 27.33919603 4.875 20.875 C4.62153809 20.1236377 4.36807617 19.37227539 4.10693359 18.59814453 C0 6.21228342 0 6.21228342 0 0 Z " fill="#BB3C45" transform="translate(291,166)"/>
<path d="M0 0 C-0.91960595 3.1152943 -1.4134139 4.64334747 -4.2421875 6.36328125 C-5.54542969 6.83314453 -5.54542969 6.83314453 -6.875 7.3125 C-7.73867187 7.63863281 -8.60234375 7.96476562 -9.4921875 8.30078125 C-12 9 -12 9 -16 9 C-16.33 9.99 -16.66 10.98 -17 12 C-19.95664519 13.4783226 -22.74229737 13.06032783 -26 13 C-22.22990315 9.79290428 -17.90219675 7.96827768 -13.4375 5.9375 C-11.91434453 5.2405061 -10.392168 4.54136797 -8.87109375 3.83984375 C-8.20005615 3.53425537 -7.52901855 3.22866699 -6.83764648 2.91381836 C-0.97809244 0 -0.97809244 0 0 0 Z " fill="#F8D3D0" transform="translate(124,274)"/>
<path d="M0 0 C7.1120669 5.16381453 13.90324925 10.64921797 20 17 C19.34 17.33 18.68 17.66 18 18 C18 17.34 18 16.68 18 16 C17.319375 15.95875 16.63875 15.9175 15.9375 15.875 C11.81496347 14.64701039 8.90003829 12.15076207 6 9 C6 8.34 6 7.68 6 7 C5.38125 6.896875 4.7625 6.79375 4.125 6.6875 C2 6 2 6 0 3 C-0.66 3.99 -1.32 4.98 -2 6 C-2 4.35 -2 2.7 -2 1 C-1.34 0.67 -0.68 0.34 0 0 Z " fill="#C53743" transform="translate(281,298)"/>
<path d="M0 0 C0.66 0 1.32 0 2 0 C3.53731305 3.07462609 3.33637292 6.36837369 3.5 9.75 C3.73912171 14.58557243 4.19871016 19.21874986 5 24 C5.06305204 25.79067806 5.08671114 27.58337579 5.0625 29.375 C5.05347656 30.24898437 5.04445313 31.12296875 5.03515625 32.0234375 C5.02355469 32.67570312 5.01195312 33.32796875 5 34 C3.32927811 31.01355231 2.6071084 28.46138423 2.1484375 25.078125 C1.95507812 23.66273437 1.95507812 23.66273437 1.7578125 22.21875 C1.63148438 21.2390625 1.50515625 20.259375 1.375 19.25 C1.2409375 18.28578125 1.106875 17.3215625 0.96875 16.328125 C0.2369877 10.83244075 -0.14448232 5.54286716 0 0 Z " fill="#C0353C" transform="translate(280,104)"/>
<path d="M0 0 C3.48670834 1.1094072 6.77484237 2.26337666 10 4 C9.35834945 7.70249708 7.70225861 10.2141417 5.625 13.3125 C2.92059545 17.45518131 0.74552002 21.37950583 -1 26 C-2.31223496 22.06329512 -1.24296256 19.87511856 0 16 C0.66 16 1.32 16 2 16 C2.4021875 14.6696875 2.4021875 14.6696875 2.8125 13.3125 C3.91710819 10.23122452 5.22849144 7.73778595 7 5 C4.03 4.505 4.03 4.505 1 4 C0.67 2.68 0.34 1.36 0 0 Z " fill="#FBD0CD" transform="translate(360,272)"/>
</svg>
